<svg width="189" height="63" viewBox="0 0 189 63" fill="none" xmlns="http://www.w3.org/2000/svg">
<g clip-path="url(#clip0_209_7214)">
<path d="M3.64062 46.2095C8.92367 56.1958 19.4185 63.0003 31.5026 63.0003C35.809 63.0003 39.9136 62.1361 43.6524 60.5717L33.0473 31.8906L6.48262 38.4239L3.64062 46.2095Z" fill="#F4C260"/>
<path d="M1.09375 39.7503C1.45411 41.0819 1.89961 42.3786 2.42405 43.6341L4.11279 39.0078L1.09375 39.7503Z" fill="#F4C260"/>
<path d="M17.2822 3.38281C7.02831 8.57823 0 19.2179 0 31.4992C0 33.6485 0.215273 35.7476 0.625418 37.776L4.9482 36.7129L11.1152 20.0478L17.2822 3.38281Z" fill="#624EA8"/>
<path d="M21.6267 1.57812C21.0347 1.77334 20.4504 1.98566 19.8745 2.21448L7.32031 36.1301L32.3336 29.9784L21.6267 1.57812Z" fill="#624EA8"/>
<path d="M61.7634 22.7399C57.9684 9.60509 45.8546 0 31.4974 0C28.7609 0 26.1058 0.348956 23.5744 1.00479L34.3129 29.4911L61.7634 22.7399Z" fill="#624EA8"/>
<path d="M45.4963 59.7259C55.8694 54.5719 62.9984 43.868 62.9984 31.4992C62.9984 29.1659 62.7447 26.8918 62.2634 24.7031L35.0234 31.4025L45.4963 59.7259Z" fill="#F4C260"/>
<path d="M78.3999 30.5978H75.3242L83.1347 17.6172H86.1699L94.122 30.5978H90.6214L88.9623 27.849H79.9984L78.3999 30.5978ZM81.3541 25.482H87.6268L84.4904 20.2896L81.3541 25.482Z" fill="#E3E0DB"/>
<path d="M99.2244 25.1192C97.4572 25.1192 96.5737 24.2729 96.5737 22.5803V20.0796C96.5737 19.5706 96.6614 19.157 96.8367 18.8389C97.0121 18.5207 97.2482 18.2725 97.5449 18.0943C97.8552 17.9035 98.2195 17.7762 98.6376 17.7126C99.0692 17.6489 99.5279 17.6172 100.013 17.6172H108.087C108.6 17.6172 109.065 17.6554 109.483 17.7317C109.901 17.7954 110.252 17.9226 110.535 18.1135C110.832 18.3044 111.061 18.5779 111.223 18.9343C111.385 19.2779 111.466 19.7297 111.466 20.2896C111.466 20.3533 111.459 20.4169 111.446 20.4805C111.446 20.5442 111.446 20.5951 111.446 20.6332V20.7669L108.795 21.2251V19.8315H99.447V22.7904H104.111H108.775C109.706 22.7904 110.407 22.9685 110.879 23.3249C111.365 23.6812 111.608 24.3238 111.608 25.2528V28.0781C111.608 28.6253 111.513 29.0643 111.325 29.3952C111.149 29.726 110.893 29.9807 110.556 30.1589C110.232 30.337 109.834 30.4578 109.362 30.5215C108.903 30.5724 108.391 30.5978 107.824 30.5978H98.7185C97.7742 30.5978 97.0863 30.3625 96.6546 29.8915C96.2365 29.4206 96.0273 28.7334 96.0273 27.8299C96.0273 27.7662 96.0273 27.6899 96.0273 27.6008C96.0408 27.5117 96.0543 27.4291 96.0678 27.3527C96.0813 27.2636 96.0948 27.1745 96.1083 27.0855L98.6578 26.6845V28.3072H108.735V25.1192H99.2244Z" fill="#E3E0DB"/>
<path d="M123.411 30.5978H120.235V19.8315H113.82V17.6172H129.704V19.8315H123.411V30.5978Z" fill="#E3E0DB"/>
<path d="M130.759 30.5978H127.684L135.494 17.6172H138.529L146.481 30.5978H142.981L141.322 27.849H132.358L130.759 30.5978ZM133.713 25.482H139.985L136.849 20.2896L133.713 25.482Z" fill="#E3E0DB"/>
<path d="M148.691 17.6172H150.857L162.148 26.4936V17.6172H164.98V30.5978H162.815L151.524 21.6832V30.5978H148.691V17.6172Z" fill="#E3E0DB"/>
<path d="M170.279 30.5978H167.203L175.014 17.6172H178.049L186.001 30.5978H182.5L180.841 27.849H171.877L170.279 30.5978ZM173.232 25.482H179.505L176.369 20.2896L173.232 25.482Z" fill="#E3E0DB"/>
<path d="M81.7283 44.8218C80.9859 45.1219 80.2083 45.2718 79.395 45.2718C78.0854 45.2718 77.0783 44.8911 76.3739 44.1293C75.6742 43.3631 75.3242 42.232 75.3242 40.7363C75.3242 40.0116 75.4212 39.356 75.615 38.7697C75.8089 38.1835 76.0855 37.6873 76.4447 37.2809C76.8041 36.8702 77.2391 36.5539 77.7497 36.3323C78.2603 36.1108 78.8324 36 79.4659 36C79.8962 36 80.2956 36.0369 80.6645 36.1108C81.0332 36.1799 81.3878 36.2884 81.7283 36.4362V37.648C81.3926 37.4679 81.045 37.3317 80.6858 37.2395C80.3264 37.1424 79.934 37.0941 79.5085 37.0941C79.0735 37.0941 78.6787 37.1748 78.3241 37.3364C77.9743 37.4934 77.6764 37.7242 77.4306 38.0289C77.1847 38.3289 76.9956 38.6982 76.8632 39.1368C76.7309 39.5707 76.6646 40.0669 76.6646 40.6255C76.6646 41.798 76.9081 42.6822 77.3951 43.2776C77.882 43.8731 78.596 44.1708 79.5369 44.1708C79.934 44.1708 80.3145 44.127 80.6786 44.0393C81.0426 43.9469 81.3926 43.8201 81.7283 43.6584V44.8218Z" fill="#E3E0DB"/>
<path d="M96.4783 45.0503H95.0529L93.6699 42.1559C93.5659 41.9343 93.4595 41.7519 93.3509 41.6089C93.2421 41.4611 93.1238 41.3457 92.9963 41.2626C92.8734 41.1749 92.7362 41.1126 92.585 41.0757C92.4384 41.0387 92.2728 41.0202 92.0885 41.0202H91.4928V45.0503H90.2305V36H92.7125C93.2515 36 93.7149 36.0577 94.1025 36.1731C94.4903 36.2885 94.8071 36.4501 95.0529 36.6578C95.3035 36.8655 95.4855 37.1171 95.599 37.4126C95.7172 37.7034 95.7763 38.0266 95.7763 38.382C95.7763 38.6636 95.7337 38.9314 95.6486 39.1853C95.5635 39.4345 95.4358 39.6631 95.2657 39.8707C95.1002 40.074 94.8922 40.2516 94.6416 40.404C94.3957 40.5517 94.112 40.6625 93.7906 40.7363C94.0506 40.824 94.2705 40.9788 94.4501 41.2003C94.6345 41.4172 94.8212 41.7081 95.0104 42.0728L96.4783 45.0503ZM94.4571 38.4859C94.4571 38.0011 94.3012 37.6388 93.9891 37.3987C93.6818 37.1587 93.2469 37.0386 92.6842 37.0386H91.4928V40.03H92.514C92.8119 40.03 93.079 39.9977 93.3153 39.9331C93.5565 39.8639 93.7598 39.7646 93.9253 39.6354C94.0955 39.5014 94.2254 39.3399 94.3153 39.1506C94.4099 38.9567 94.4571 38.7352 94.4571 38.4859Z" fill="#E3E0DB"/>
<path d="M110.246 45.0503H104.977V36H110.246V37.0386H106.239V39.8431H110.09V40.8817H106.239V43.9978H110.246V45.0503Z" fill="#E3E0DB"/>
<path d="M126.59 45.0503H125.214L124.569 43.0768H120.711L120.058 45.0503H118.746L121.824 36H123.554L126.59 45.0503ZM124.207 41.9758L122.639 37.1356L121.072 41.9758H124.207Z" fill="#E3E0DB"/>
<path d="M141.857 37.0525H139.111V45.0503H137.835V37.0525H135.09V36H141.857V37.0525Z" fill="#E3E0DB"/>
<path d="M152.49 37.0386H150.355V36H155.901V37.0386H153.767V43.9978H155.901V45.0503H150.355V43.9978H152.49V37.0386Z" fill="#E3E0DB"/>
<path d="M172.331 36L169.182 45.0503H167.481L164.402 36H165.828L167.827 42.1004L168.396 43.887L168.977 42.1004L170.984 36H172.331Z" fill="#E3E0DB"/>
<path d="M186.097 45.0503H180.828V36H186.097V37.0386H182.09V39.8431H185.941V40.8817H182.09V43.9978H186.097V45.0503Z" fill="#E3E0DB"/>
</g>
<defs>
<clipPath id="clip0_209_7214">
<rect width="189" height="63" fill="white"/>
</clipPath>
</defs>
</svg>
