<?xml version="1.0" encoding="utf-8"?>
<!-- Generator: Adobe Illustrator 26.1.0, SVG Export Plug-In . SVG Version: 6.00 Build 0)  -->
<svg version="1.1" id="Слой_1" xmlns="http://www.w3.org/2000/svg" xmlns:xlink="http://www.w3.org/1999/xlink" x="0px" y="0px"
	 viewBox="0 0 142 50" style="enable-background:new 0 0 142 50;" xml:space="preserve">
<style type="text/css">
	.st0{opacity:0.95;}
	.st1{fill:#5E7478;}
	.st2{fill:#FF6D00;}
	.st3{fill:#FFFFFF;}
	.st4{fill:#FFFFFF;fill-opacity:0.95;}
</style>
<g class="st0">
	<path class="st1" d="M17.3,1.1l8.3,22.5l-20,5l9.7-26.8C16,1.5,16.6,1.3,17.3,1.1z"/>
	<path class="st1" d="M18.1,0.9l8.3,22.5L48.2,18C44.7,5.3,31.7-2.4,18.8,0.7C18.5,0.8,18.3,0.8,18.1,0.9z"/>
	<path class="st1" d="M48.4,18.8l-1.5,0.4L48.4,18.8C48.4,18.8,48.4,18.8,48.4,18.8z"/>
	<path class="st1" d="M0.6,29.8C-1.9,18.4,4,7,14.3,2.2L4.7,28.8L0.6,29.8z"/>
	<path class="st2" d="M0.8,30.6c0.4,1.6,0.9,3.1,1.6,4.5l2-5.4L0.8,30.6z"/>
	<path class="st2" d="M2.9,36.1c5.1,9.7,16.3,15,27.5,12.3c1.4-0.3,2.7-0.8,3.9-1.3l-8.4-22.8L5.3,29.5L2.9,36.1z"/>
	<path class="st2" d="M35,46.8c10.4-4.8,16.2-16.5,13.4-28l-1.5,0.4l-20.2,5L35,46.8z"/>
</g>
<path class="st3" d="M59.8,24.3h-2.4L63.6,14H66l6.3,10.3h-2.8l-1.3-2.2h-7.1L59.8,24.3z M62.2,20.2h5l-2.5-4.1L62.2,20.2z"/>
<path class="st3" d="M75.5,19.9c-1.4,0-2.1-0.7-2.1-2v-2c0-0.4,0.1-0.7,0.2-1c0.1-0.3,0.3-0.4,0.6-0.6c0.2-0.2,0.5-0.3,0.9-0.3
	c0.3-0.1,0.7-0.1,1.1-0.1h6.4c0.4,0,0.8,0,1.1,0.1c0.3,0.1,0.6,0.2,0.8,0.3c0.2,0.2,0.4,0.4,0.5,0.7c0.1,0.3,0.2,0.6,0.2,1.1
	c0,0.1,0,0.1,0,0.2c0,0.1,0,0.1,0,0.1v0.1l-2.1,0.4v-1.1h-7.4v2.3h3.7h3.7c0.7,0,1.3,0.1,1.7,0.4c0.4,0.3,0.6,0.8,0.6,1.5v2.2
	c0,0.4-0.1,0.8-0.2,1c-0.1,0.3-0.3,0.5-0.6,0.6c-0.3,0.1-0.6,0.2-0.9,0.3c-0.4,0-0.8,0.1-1.2,0.1h-7.2c-0.7,0-1.3-0.2-1.6-0.6
	c-0.3-0.4-0.5-0.9-0.5-1.6c0-0.1,0-0.1,0-0.2c0-0.1,0-0.1,0-0.2c0-0.1,0-0.1,0-0.2l2-0.3v1.3h8v-2.5H75.5z"/>
<path class="st3" d="M93.9,24.3h-2.5v-8.5h-5.1V14h12.6v1.8h-5V24.3z"/>
<path class="st3" d="M99.8,24.3h-2.4l6.2-10.3h2.4l6.3,10.3h-2.8l-1.3-2.2H101L99.8,24.3z M102.1,20.2h5l-2.5-4.1L102.1,20.2z"/>
<path class="st3" d="M113.2,14h1.7l9,7v-7h2.2v10.3h-1.7l-9-7.1v7.1h-2.2V14z"/>
<path class="st3" d="M129.5,24.3h-2.4l6.2-10.3h2.4l6.3,10.3h-2.8l-1.3-2.2h-7.1L129.5,24.3z M131.9,20.2h5l-2.5-4.1L131.9,20.2z"/>
<path class="st4" d="M62.5,34.2c-0.6,0.2-1.2,0.4-1.9,0.4c-1,0-1.8-0.3-2.4-0.9c-0.6-0.6-0.8-1.5-0.8-2.7c0-0.6,0.1-1.1,0.2-1.6
	c0.2-0.5,0.4-0.9,0.7-1.2c0.3-0.3,0.6-0.6,1-0.8c0.4-0.2,0.9-0.3,1.4-0.3c0.3,0,0.7,0,1,0.1c0.3,0.1,0.6,0.1,0.8,0.3v1
	c-0.3-0.1-0.5-0.3-0.8-0.3c-0.3-0.1-0.6-0.1-0.9-0.1c-0.3,0-0.7,0.1-0.9,0.2c-0.3,0.1-0.5,0.3-0.7,0.5c-0.2,0.2-0.3,0.5-0.5,0.9
	c-0.1,0.3-0.2,0.7-0.2,1.2c0,0.9,0.2,1.6,0.6,2.1c0.4,0.5,1,0.7,1.7,0.7c0.3,0,0.6,0,0.9-0.1c0.3-0.1,0.6-0.2,0.8-0.3V34.2z"/>
<path class="st4" d="M74.2,34.5H73l-1.1-2.3c-0.1-0.2-0.2-0.3-0.3-0.4c-0.1-0.1-0.2-0.2-0.3-0.3c-0.1-0.1-0.2-0.1-0.3-0.1
	c-0.1,0-0.2,0-0.4,0h-0.5v3.2h-1v-7.2h2c0.4,0,0.8,0,1.1,0.1c0.3,0.1,0.6,0.2,0.8,0.4c0.2,0.2,0.3,0.4,0.4,0.6
	c0.1,0.2,0.1,0.5,0.1,0.8c0,0.2,0,0.4-0.1,0.6c-0.1,0.2-0.2,0.4-0.3,0.5c-0.1,0.2-0.3,0.3-0.5,0.4c-0.2,0.1-0.4,0.2-0.7,0.3
	c0.2,0.1,0.4,0.2,0.5,0.4c0.1,0.2,0.3,0.4,0.4,0.7L74.2,34.5z M72.6,29.3c0-0.4-0.1-0.7-0.4-0.9c-0.2-0.2-0.6-0.3-1-0.3h-0.9v2.4H71
	c0.2,0,0.4,0,0.6-0.1c0.2-0.1,0.4-0.1,0.5-0.2c0.1-0.1,0.2-0.2,0.3-0.4C72.5,29.7,72.6,29.5,72.6,29.3z"/>
<path class="st4" d="M85,34.5h-4.2v-7.2H85v0.8h-3.2v2.2h3.1v0.8h-3.1v2.5H85V34.5z"/>
<path class="st4" d="M97.3,34.5h-1.1l-0.5-1.6h-3.1l-0.5,1.6h-1l2.4-7.2h1.4L97.3,34.5z M95.5,32.1l-1.2-3.8L93,32.1H95.5z"/>
<path class="st4" d="M108.3,28.2h-2.2v6.3h-1v-6.3H103v-0.8h5.4V28.2z"/>
<path class="st4" d="M116.5,28.1h-1.7v-0.8h4.4v0.8h-1.7v5.5h1.7v0.8h-4.4v-0.8h1.7V28.1z"/>
<path class="st4" d="M131.6,27.3l-2.5,7.2h-1.3l-2.4-7.2h1.1l1.6,4.8l0.5,1.4l0.5-1.4l1.6-4.8H131.6z"/>
<path class="st4" d="M142,34.5h-4.2v-7.2h4.2v0.8h-3.2v2.2h3.1v0.8h-3.1v2.5h3.2V34.5z"/>
</svg>
